<mxfile host="app.diagrams.net" modified="2023-05-12T08:09:17.045Z" agent="Mozilla/5.0 (Windows NT 10.0; Win64; x64) AppleWebKit/537.36 (KHTML, like Gecko) Chrome/109.0.0.0 Safari/537.36" version="21.2.9" etag="H0gKBsaXM-7xL1uMrZq8" type="github">
  <diagram name="Page-1" id="eMryUdkctTudmAU1rjbZ">
    <mxGraphModel>
      <root>
        <mxCell id="0" />
        <mxCell id="1" parent="0" />
      </root>
    </mxGraphModel>
  </diagram>
</mxfile>
